<svg xmlns="http://www.w3.org/2000/svg" width="56" height="56" viewBox="0 0 56 56" fill="none">
  <mask id="bars" maskUnits="userSpaceOnUse" x="0" y="0" width="56" height="56">
    <rect width="56" height="56" fill="#fff"/>
    <rect x="18" y="26" width="5" height="9" rx="1.5" fill="#000"/>
    <rect x="25.5" y="21" width="5" height="14" rx="1.5" fill="#000"/>
    <rect x="33" y="16" width="5" height="19" rx="1.5" fill="#000"/>
  </mask>
  <path d="M14 8 H44 a8 8 0 0 1 8 8 V32 a8 8 0 0 1 -8 8 H22 l-10 9 l3 -9 h-1 a8 8 0 0 1 -8 -8 V16 a8 8 0 0 1 8 -8 Z" fill="#ff6b6b" mask="url(#bars)"/>
</svg>
